<svg id="Capa_1" data-name="Capa 1" xmlns="http://www.w3.org/2000/svg" viewBox="0 0 1408 768"><defs><style>.cls-1{fill:#fcfcfc;}.cls-2{fill:#0ab2b8;}.cls-3{fill:#09b2b8;}.cls-4{fill:#192e66;}.cls-5{fill:#1a2f66;}.cls-6{fill:#1a2f65;}.cls-7{fill:#192e65;}.cls-8{fill:#1d2e5d;}.cls-9{fill:#1a2b5b;}.cls-10{fill:#1b2c5c;}.cls-11{fill:#1e2f60;}.cls-12{fill:#1b2958;}.cls-13{fill:#1c2a59;}.cls-14{fill:#1c2c5a;}.cls-15{fill:#202f5d;}.cls-16{fill:#24335e;}.cls-17{fill:#1a2f62;}.cls-18{fill:#1d2f63;}.cls-19{fill:#202f5e;}.cls-20{fill:#192f65;}.cls-21{fill:#fcfdfe;}.cls-22{fill:#fdfdfd;}.cls-23{fill:#fafbfb;}.cls-24{fill:#f8f9fa;}.cls-25{fill:#fbfbfc;}</style></defs><path class="cls-1" d="M340.47,767.65q-349.65,0-699.31.12c-4.3,0-4.73-1.17-4.73-5q.15-379.08,0-758.15c0-4.11.89-4.83,4.89-4.83q699.06.17,1398.13,0c4.54,0,5,1.33,5,5.25q-.15,379.08,0,758.16c0,3.81-1,4.56-4.63,4.56Q690.13,767.59,340.47,767.65Z" transform="translate(363.59 0.23)"/><path class="cls-2" d="M319.7,437.88c16.65-.07,33.29,0,49.94-.25a25.77,25.77,0,0,0,16.3-45.56c-5.61-4.71-12.28-6.39-19.49-6.41-15,0-29.95-.14-44.93-.22-1.83-1.64-1.68-3.88-1.69-6q-.12-16.36,0-32.72c0-2.15,0-4.34,1.83-6q21.48-.31,43-.6c6.61-.07,12.91-1.2,18.63-4.73a24.29,24.29,0,0,0,11-27.59,25,25,0,0,0-23.34-17.92c-17.16-.21-34.32-.23-51.47-.34-.38-1.53.72-2.43,1.49-3.48,3.31-4.51,2.6-8.41-2.32-12.86-4-3.62-6.1-3.53-10.76.42-3.91,3.32-7.79,6.68-11.86,9.81-1.25,1-2.38,2.51-4.33,1.42-.06-11.48,0-23-.23-34.44-.07-3.54,2.13-3.14,4.21-3.13,24.13.06,48.28-.06,72.41.35a68.6,68.6,0,0,1,34.1,10.15c18.6,11.06,30.62,27,33.9,48.66,2.69,17.73-2.74,33.18-14.85,46.33l-9.25,10.1c7.6,6.79,14.8,14.81,19.29,24.85,11.82,26.49,2.84,58.69-21.28,77.19-15.33,11.75-32.83,16.38-51.83,16.4-20.81,0-41.62,0-62.43.09-3.08,0-4.39-.56-4.31-4.06.25-11.81.14-23.63.16-35.45,2.74-.71,4.28,1.34,5.94,2.78,3.76,3.26,7.83,6.12,11.56,9.4,2.88,2.53,5.53,2.32,8.46.06,5.8-4.47,6.49-8.47,2.32-14.52A1.34,1.34,0,0,1,319.7,437.88Z" transform="translate(363.59 0.23)"/><path class="cls-3" d="M276.42,385.43c-14.29.08-28.58.14-42.87.27-2.16,0-2.89-.78-2.88-2.92q.09-19.69,0-39.39c0-2.19.84-2.91,2.93-2.89,14.29.11,28.58.15,42.86.21,1.42,1.64,1.58,3.63,1.59,5.65.05,11.16.07,22.32,0,33.49C278,381.82,278.07,383.89,276.42,385.43Z" transform="translate(363.59 0.23)"/><path class="cls-4" d="M276.42,385.43q0-22.35,0-44.72c15.07-.37,30.14-.52,45.21.06q-.06,22.34-.13,44.67Z" transform="translate(363.59 0.23)"/><path class="cls-5" d="M274.62,270.25c0,6.16-.13,12.33.06,18.48.08,2.66-.77,3.39-3.37,3.37q-18.75-.12-37.48.12c-2.84,0-3.64-.86-3.6-3.67.14-12.65.12-25.31,0-38,0-2.52.61-3.5,3.33-3.47q19,.18,38,0c2.43,0,3.17.78,3.12,3.14-.12,6.66,0,13.33,0,20Z" transform="translate(363.59 0.23)"/><path class="cls-4" d="M274.65,459.27c0,6.49-.08,13,.05,19.46,0,2.31-.56,3.19-3,3.17q-19.22-.15-38.43,0c-2.54,0-3-1-3-3.21q.12-19.22,0-38.42c0-2.38.35-3.58,3.2-3.54q19,.25,37.92.05c2.79,0,3.31,1.07,3.27,3.5-.12,6.32,0,12.64,0,19Z" transform="translate(363.59 0.23)"/><path class="cls-6" d="M291.65,284.9c5.91-3.42,10.63-8.34,15.9-12.56,5.44-4.35,8.29-4.19,13.35,1.17,4.68,5,4.71,9.51.13,14.21-.58.59-1.07,1.25-1.6,1.87-15.32,12.58-30.68,25.09-45.89,37.78-2.42,2-4,2.55-6.67.41-4.53-3.62-9.43-6.77-14.25-10.17,11.85-9.71,23.53-19.27,35.17-28.87C289.18,287.59,290.36,286.18,291.65,284.9Z" transform="translate(363.59 0.23)"/><path class="cls-7" d="M319.7,437.88c6.64,7.09,4.72,15.15-4.45,19.31-2.68,1.21-4.38,0-6.24-1.47q-8.72-6.9-17.47-13.78c-11.69-10.61-24.36-20-36.7-29.85-.64-.51-1.29-1-2.33-1.82,5.54-3.9,10.93-7.58,16.18-11.45,2.1-1.55,3,.16,4.16,1.1q20.89,17,41.74,34C316.27,435.26,318,436.56,319.7,437.88Z" transform="translate(363.59 0.23)"/><path class="cls-8" d="M199.51,560.22c7.39,4.32,10,9.13,8.6,15.33-1.5,6.49-6.91,10.93-14.69,11.3-7.47.37-15,.08-22.46.26-2.61.07-3-1.16-3-3.32.08-14.81.13-29.62.06-44.43,0-2.65.93-3.42,3.48-3.37,6.49.14,13-.22,19.47.09,10,.47,15.87,6.66,14.64,15C205.11,554.65,204,556.32,199.51,560.22Z" transform="translate(363.59 0.23)"/><path class="cls-9" d="M371.18,582.94c-5.52,4.06-10.77,6-16.89,4.06-5.15-1.67-8.06-5.17-8.17-10s2.64-8.52,7.81-10.31a41.42,41.42,0,0,1,12.28-1.77c1.36,0,3.36.85,3.94-.93a4.87,4.87,0,0,0-2-5.29c-4.51-3.46-9.13-2-13.57.2-1.59.78-2.62,1.65-4.19-.24-2.18-2.63-2.34-4.22,1-6a25.26,25.26,0,0,1,15.9-2.82c6.79,1,11,5.62,11.22,12.56s.2,13.64.11,20.45c0,1.67,1.28,4.37-2.18,4.45C373.76,587.33,370.43,588.34,371.18,582.94Z" transform="translate(363.59 0.23)"/><path class="cls-10" d="M310.64,572.91c0,3.66.05,7.31,0,11,0,1.18.65,3.09-1.4,3.06s-4.91,1.55-5.71-1.1c-1.11-3.7-2.59-1.39-3.8-.62a15.08,15.08,0,0,1-14.29,1.42c-4.33-1.68-7.14-4.77-7.28-9.72s2.57-8.09,6.87-9.95c4-1.74,8.39-1.82,12.71-2.09,1.45-.09,3.82,1.06,4.19-1.27a5.26,5.26,0,0,0-2.71-5.49,11.28,11.28,0,0,0-11.89.4c-3.67,2.37-5.15.37-6.4-2.26-1.52-3.23,1.9-3.39,3.41-4.21a23.09,23.09,0,0,1,15-2.16c7.05,1.14,11,5.78,11.22,13.06.11,3.32,0,6.65,0,10Z" transform="translate(363.59 0.23)"/><path class="cls-11" d="M244.49,554c2.89-1.69,5.13-3.73,8.2-4.28,10.27-1.86,17.39,3.78,17.62,14.26.15,6.65-.18,13.31.07,20,.15,4-2.51,3-4.63,3.12-2.28.16-4.23.27-4.09-3.17.25-6,.17-12,0-18s-2.88-9-8.22-9-8.88,3.43-9,9.08c-.1,5.82-.33,11.67.07,17.46.29,4.14-2.12,3.46-4.62,3.69-3,.27-4-.68-4-3.82.18-9.48,0-19,.08-28.45,0-1.79-1.39-4.76,2.38-4.79C241.2,550,244.8,548.72,244.49,554Z" transform="translate(363.59 0.23)"/><path class="cls-12" d="M411.87,556.75c-3.11,9.56-5.92,18.24-8.79,26.91-.6,1.81-.85,3.76-3.77,3.73s-3.16-1.79-3.78-3.67c-3.3-9.93-6.69-19.84-9.82-29.82-.33-1-2.71-3.17.42-3.83,1.88-.39,3.73-.39,4.52,2.46,2.52,9.07,5.43,18,8.64,28.51,3.3-9.81,6.09-18.21,9-26.57.64-1.86.33-4.47,3.58-4.54s3.07,2.48,3.72,4.37c2.89,8.42,5.73,16.87,9,26.59l7.81-25.81c.34-1.11.63-2.25,1.05-3.33.85-2.18,2.85-1.62,4.28-1.3,1.73.39.72,1.94.4,2.9-3.37,10.44-6.86,20.84-10.19,31.29-.59,1.85-1.33,2.78-3.42,2.72s-2.86-.72-3.47-2.68C418.21,575.65,415.16,566.69,411.87,556.75Z" transform="translate(363.59 0.23)"/><path class="cls-13" d="M492.64,582.92c-.62,2.15,0,5-3.53,4.41-3-.52-1.71-2.86-1.72-4.38q-.09-22,.09-43.9c0-1.69-1.13-4.16,2.39-4.25,3.86-.11,2.66,2.58,2.7,4.45.11,5,0,9.93,0,15.72,5.14-4.31,10.45-6.55,16.71-4.79a15.26,15.26,0,0,1,8.69,6.31c5.39,7.88,4.22,20.73-2.42,27.26C509.66,589.57,501.91,589.39,492.64,582.92Z" transform="translate(363.59 0.23)"/><path class="cls-14" d="M463.52,570.49c-4,0-8,.12-12,0-3-.11-3.3,1-2.52,3.58,2.82,9.35,14.06,12.65,21.82,6.22,1.57-1.3,2.84-3.28,4.77-.84s-.9,3.18-2,4.15a18.55,18.55,0,0,1-23.86.26c-7-6-8.62-17.1-3.75-25.57a17.43,17.43,0,0,1,21.63-7.49,17.87,17.87,0,0,1,10.91,17c-.1,2.28-1,2.8-3,2.74-4-.1-8,0-12,0Z" transform="translate(363.59 0.23)"/><path class="cls-15" d="M329.05,555c3.54-3.24,6.26-5.46,10-5.4,1.23,0,3.72-.86,3.15,1.59-.51,2.22,1.77,5.73-2.17,6.62-10.46,2.35-10.79,2.67-10.8,13.42,0,4.15-.19,8.31.09,12.44.24,3.61-1.82,3.55-4.34,3.49s-4.48.23-4.4-3.46c.22-9.79,0-19.58.07-29.37,0-1.87-1.2-4.69,2.67-4.42C326.23,550.16,330.25,548.53,329.05,555Z" transform="translate(363.59 0.23)"/><path class="cls-16" d="M225.32,568.39c0,5.15-.18,10.31.06,15.44.16,3.29-1.6,3.46-4,3.3-2.18-.15-4.74.79-4.68-3.15.18-10.3.17-20.6,0-30.9-.06-4.1,2.79-2.72,4.82-3,2.52-.34,4,.14,3.87,3.35-.27,5-.07,10-.07,14.95Z" transform="translate(363.59 0.23)"/><path class="cls-17" d="M252,410.32,230.7,424.85V395.94Z" transform="translate(363.59 0.23)"/><path class="cls-18" d="M251.93,317.45l-21.34,14v-28.7Z" transform="translate(363.59 0.23)"/><path class="cls-19" d="M221.27,544.49c-3.41-.21-5.22-1.66-5-5s2.09-4.75,5.23-4.66,4.94,1.83,4.82,5.06S224.08,544.41,221.27,544.49Z" transform="translate(363.59 0.23)"/><path class="cls-20" d="M368.3,362.62c0-6,.09-12,0-18-.06-2.75.34-4,3.56-2.89a160.27,160.27,0,0,1,36.48,18.31c2.45,1.65,2.27,2.76,0,4.33a169.8,169.8,0,0,1-37,19.58c-2.7,1-3.12,0-3.09-2.35C368.37,375.28,368.31,369,368.3,362.62Z" transform="translate(363.59 0.23)"/><path class="cls-21" d="M185.26,578.84c-8.5.11-8.21.1-8.63-8.61-.23-4.69,1.27-6.12,5.75-5.62,3.28.37,6.66-.07,10,.25,4.14.41,6.87,2.78,6.92,7.09.06,4.48-2.91,6.48-7,6.85C189.93,579,187.58,578.84,185.26,578.84Z" transform="translate(363.59 0.23)"/><path class="cls-22" d="M184.87,543.88a51.31,51.31,0,0,1,5.95,0c3.49.4,6,2.12,6,6s-2,6.37-5.82,6.75-7.93.2-11.9.29c-1.63,0-2.46-.63-2.36-2.34.06-.82,0-1.65,0-2.48C176.68,543.7,176.68,543.7,184.87,543.88Z" transform="translate(363.59 0.23)"/><path class="cls-23" d="M366.05,570.74c1.16.47,3.64-1.25,4.29,1.27a6.56,6.56,0,0,1-1.54,6.07,4.72,4.72,0,0,1-.74.67c-3.52,2.38-7.28,3.36-11.26,1.36a3.81,3.81,0,0,1-2.17-4.61c1.39-4.46,5.45-4.23,9-4.75A20.58,20.58,0,0,1,366.05,570.74Z" transform="translate(363.59 0.23)"/><path class="cls-24" d="M302.13,573.81c.15,3.6-2.16,5.49-5.05,6.62s-6.26,1.39-9-.85-1.81-6.18,1.67-7.6c3.29-1.33,6.83-1.17,10.31-1.27C302.46,570.64,302.14,572.33,302.13,573.81Z" transform="translate(363.59 0.23)"/><path class="cls-22" d="M492.49,569.15c-.59-6.08.54-11.4,6.66-14.24,5.61-2.6,11.87-.38,15,5.11,3.95,7,2.28,17.23-3.47,21.34C505.57,585,499,583.89,494.49,579,491.68,576,492.76,572.5,492.49,569.15Z" transform="translate(363.59 0.23)"/><path class="cls-25" d="M448.71,566.51c.66-7.13,5.08-12.12,11.14-12.7,5.87-.56,10.94,3,12.87,8.84.88,2.65.73,4-2.61,3.91C463,566.4,455.85,566.51,448.71,566.51Z" transform="translate(363.59 0.23)"/></svg>